<svg width="28" height="26" fill="none" xmlns="http://www.w3.org/2000/svg"><path d="M9.187 21.653V8.107c0-.534.16-1.054.453-1.494L13.28 1.2c.573-.867 2-1.48 3.213-1.027 1.307.44 2.174 1.907 1.894 3.214l-.694 4.36c-.053.4.054.76.28 1.04.227.253.56.413.92.413h5.48c1.054 0 1.96.427 2.494 1.173.506.72.6 1.654.266 2.6l-3.28 9.987c-.413 1.653-2.213 3-4 3h-5.2c-.893 0-2.146-.307-2.72-.88l-1.706-1.32a2.646 2.646 0 01-1.04-2.107zM4.947 5.507H3.573c-2.066 0-2.906.8-2.906 2.773v13.413c0 1.974.84 2.774 2.906 2.774h1.374c2.066 0 2.906-.8 2.906-2.774V8.28c0-1.973-.84-2.773-2.906-2.773z" fill="#596B55"/></svg>