<svg width="13" height="13" fill="none" xmlns="http://www.w3.org/2000/svg"><path d="M12.731 10.456c0 .225-.05.457-.156.681a2.579 2.579 0 01-.425.638 2.816 2.816 0 01-1.025.737 3.137 3.137 0 01-1.219.238c-.637 0-1.319-.15-2.037-.456a10.983 10.983 0 01-2.15-1.238 17.97 17.97 0 01-2.05-1.75 17.759 17.759 0 01-1.744-2.043A11.142 11.142 0 01.7 5.13C.4 4.42.25 3.737.25 3.087c0-.425.075-.83.225-1.206.15-.381.388-.731.719-1.044.4-.393.837-.587 1.3-.587.175 0 .35.037.506.112.163.076.306.188.419.35l1.45 2.044c.112.157.194.3.25.438a.988.988 0 01.087.381c0 .15-.044.3-.131.444-.081.143-.2.293-.35.444l-.475.493a.334.334 0 00-.1.25c0 .05.006.094.019.144.019.05.037.088.05.125.112.206.306.475.581.8.281.325.581.656.906.987.338.332.663.638.994.92.325.274.594.462.806.574l.113.05c.05.019.1.025.156.025a.344.344 0 00.256-.106l.475-.469c.156-.156.306-.275.45-.35a.832.832 0 01.444-.131c.119 0 .244.025.381.081.138.056.281.138.438.244l2.069 1.469a.948.948 0 01.343.4c.063.156.1.312.1.487z" fill="#EEF2EF"/></svg>