<svg width="29" height="29" fill="none" xmlns="http://www.w3.org/2000/svg"><path d="M23.067 25.6l-2.534 2.547c-.693.693-1.84.693-2.56 0l-2.106-2.12a1.835 1.835 0 010-2.56l2.546-2.52 4.654 4.653zm5.08-5.066L24.4 24.267l-4.653-4.654 3.733-3.76a1.835 1.835 0 012.56 0l2.107 2.12c.693.707.693 1.867 0 2.56zM7.328.717c.552-.053 1.005.4 1.005.955V7.4a1 1 0 01-1 1H1.667c-.553 0-1.006-.45-.957-1C1.056 3.515 3.458 1.088 7.328.717zM25.907 8.4h-5.24a1 1 0 01-1-1V1.673c0-.555.453-1.01 1.005-.956 3.703.36 6.065 2.598 6.568 6.19.107.786-.533 1.493-1.333 1.493zM7.333 19.733a1 1 0 011 1v5.16c0 .8-.706 1.44-1.506 1.334C3.29 26.7 1.103 24.379.724 20.745c-.057-.554.398-1.012.955-1.012h5.654zm1-8.333a1 1 0 00-1-1H1.667a1 1 0 00-1 1v5.333a1 1 0 001 1h5.666a1 1 0 001-1V11.4zm9.334 0a1 1 0 00-1-1h-5.334a1 1 0 00-1 1v5.333a1 1 0 001 1h5c.734 0 1.334-.6 1.334-1.333v-5zm0-9.733a1 1 0 00-1-1h-5.334a1 1 0 00-1 1V7.4a1 1 0 001 1h5.334a1 1 0 001-1V1.667z" fill="#596B55"/></svg>