<svg width="24" height="28" fill="none" xmlns="http://www.w3.org/2000/svg"><path d="M20.72 3.493L13.387.747c-.76-.28-2-.28-2.76 0L3.293 3.493C1.88 4.027.733 5.68.733 7.187v10.8c0 1.08.707 2.506 1.574 3.146l7.333 5.48c1.293.974 3.413.974 4.707 0l7.333-5.48c.867-.653 1.573-2.066 1.573-3.146v-10.8c.014-1.507-1.133-3.16-2.533-3.694zm-4.08 7.467l-5.733 5.733c-.2.2-.454.294-.707.294a.989.989 0 01-.707-.294l-2.133-2.16a1.006 1.006 0 010-1.413 1.006 1.006 0 011.413 0l1.44 1.44 5.027-5.027a1.006 1.006 0 011.413 0 1.01 1.01 0 01-.013 1.427z" fill="#596B55"/></svg>