<svg width="29" height="22" fill="none" xmlns="http://www.w3.org/2000/svg"><path d="M19.52 1.947l1.88 3.76c.253.52.933 1.013 1.507 1.12l3.4.56c2.173.36 2.68 1.933 1.12 3.506l-2.654 2.654c-.44.44-.693 1.306-.546 1.933l.76 3.28c.6 2.587-.787 3.6-3.067 2.24l-3.187-1.893c-.573-.347-1.533-.347-2.106 0L13.44 21c-2.28 1.347-3.667.347-3.067-2.24l.76-3.28c.12-.64-.133-1.507-.573-1.947L7.907 10.88c-1.56-1.56-1.054-3.133 1.12-3.507l3.4-.56c.573-.093 1.253-.6 1.506-1.12l1.88-3.76c1.027-2.026 2.68-2.026 3.707.014zm-9.853.72h-8c-.547 0-1-.454-1-1 0-.547.453-1 1-1h8c.546 0 1 .453 1 1 0 .546-.454 1-1 1zm-4 18.667h-4c-.547 0-1-.454-1-1 0-.547.453-1 1-1h4c.546 0 1 .453 1 1 0 .546-.454 1-1 1zM3 12H1.667c-.547 0-1-.453-1-1 0-.547.453-1 1-1H3c.547 0 1 .453 1 1 0 .547-.453 1-1 1z" fill="#596B55"/></svg>