<svg width="109" height="26" fill="none" xmlns="http://www.w3.org/2000/svg"><path d="M.304 25V1h5.888v18.88H19.44V25H.304zm22.268-12C22.572 4.648 27.66.328 35.724.328 43.82.328 48.908 4.68 48.908 13S43.82 25.672 35.724 25.672c-8.064 0-13.152-4.352-13.152-12.672zm13.152 7.552c4.64 0 7.264-2.784 7.264-7.552 0-4.864-2.624-7.584-7.264-7.584-4.608 0-7.232 2.816-7.232 7.584s2.624 7.552 7.232 7.552zm27.573-4.384V12.2h14.816V25h-4.352v-2.464c-1.792 1.824-4.352 3.104-8.384 3.104-7.968 0-13.024-4.32-13.024-12.64S57.409.36 65.473.36c5.92 0 10.208 2.336 12.096 6.848l-5.6 1.984c-1.056-2.432-3.2-3.712-6.496-3.712-4.672 0-7.168 2.752-7.168 7.52s2.496 7.52 7.168 7.52c3.488 0 5.792-1.568 6.688-4.352h-8.864zM82.134 13c0-8.352 5.088-12.672 13.152-12.672C103.382.328 108.47 4.68 108.47 13s-5.088 12.672-13.184 12.672c-8.064 0-13.152-4.352-13.152-12.672zm13.152 7.552c4.64 0 7.264-2.784 7.264-7.552 0-4.864-2.624-7.584-7.264-7.584-4.608 0-7.232 2.816-7.232 7.584s2.624 7.552 7.232 7.552z" fill="#EEF2EF"/></svg>